<svg width="24" height="24" viewBox="0 0 24 24" fill="none" xmlns="http://www.w3.org/2000/svg">
<path d="M7.19995 3.19995V5.59995H5.59995C4.28419 5.59995 3.19995 6.68419 3.19995 7.99995V19.2C3.19995 20.5157 4.28419 21.6 5.59995 21.6H18.4C19.7157 21.6 20.8 20.5157 20.8 19.2V7.99995C20.8 6.68419 19.7157 5.59995 18.4 5.59995H16.8V3.19995H15.2V5.59995H8.79995V3.19995H7.19995ZM5.59995 7.19995H18.4C18.857 7.19995 19.2 7.54291 19.2 7.99995V19.2C19.2 19.657 18.857 20 18.4 20H5.59995C5.14291 20 4.79995 19.657 4.79995 19.2V7.99995C4.79995 7.54291 5.14291 7.19995 5.59995 7.19995ZM13.6 13.6C13.1568 13.6 12.8 13.9568 12.8 14.4V17.6C12.8 18.0432 13.1568 18.4 13.6 18.4H16.8C17.2432 18.4 17.6 18.0432 17.6 17.6V14.4C17.6 13.9568 17.2432 13.6 16.8 13.6H13.6Z" fill="white"/>
</svg>
