<svg width="24" height="24" viewBox="0 0 24 24" fill="none" xmlns="http://www.w3.org/2000/svg">
<mask id="path-1-inside-1_177_4367" fill="white">
<path d="M2 12.2039C2 9.91549 2 8.77128 2.5192 7.82274C3.0384 6.87421 3.98695 6.28551 5.88403 5.10813L7.88403 3.86687C9.88939 2.62229 10.8921 2 12 2C13.1079 2 14.1106 2.62229 16.116 3.86687L18.116 5.10812C20.0131 6.28551 20.9616 6.87421 21.4808 7.82274C22 8.77128 22 9.91549 22 12.2039V13.725C22 17.6258 22 19.5763 20.8284 20.7881C19.6569 22 17.7712 22 14 22H10C6.22876 22 4.34315 22 3.17157 20.7881C2 19.5763 2 17.6258 2 13.725V12.2039Z"/>
</mask>
<path d="M2 12.2039C2 9.91549 2 8.77128 2.5192 7.82274C3.0384 6.87421 3.98695 6.28551 5.88403 5.10813L7.88403 3.86687C9.88939 2.62229 10.8921 2 12 2C13.1079 2 14.1106 2.62229 16.116 3.86687L18.116 5.10812C20.0131 6.28551 20.9616 6.87421 21.4808 7.82274C22 8.77128 22 9.91549 22 12.2039V13.725C22 17.6258 22 19.5763 20.8284 20.7881C19.6569 22 17.7712 22 14 22H10C6.22876 22 4.34315 22 3.17157 20.7881C2 19.5763 2 17.6258 2 13.725V12.2039Z" fill="white"/>
<path d="M2.5192 7.82274L-26.7204 -8.18222L-26.7204 -8.18209L2.5192 7.82274ZM5.88403 5.10813L23.4615 33.4303L23.4616 33.4302L5.88403 5.10813ZM7.88403 3.86687L-9.69345 -24.4553L-9.69351 -24.4552L7.88403 3.86687ZM16.116 3.86687L33.6934 -24.4553L33.6932 -24.4554L16.116 3.86687ZM18.116 5.10812L35.6935 -23.214L35.6934 -23.214L18.116 5.10812ZM21.4808 7.82274L50.7204 -8.18209L50.7204 -8.18222L21.4808 7.82274ZM20.8284 20.7881L-3.13597 -2.38128L-3.13791 -2.37927L20.8284 20.7881ZM3.17157 20.7881L27.1371 -2.38009L27.1362 -2.38097L3.17157 20.7881ZM35.3333 12.2039C35.3333 11.9025 35.3334 11.7042 35.3341 11.5316C35.3344 11.4517 35.3348 11.394 35.3352 11.3525C35.3356 11.3112 35.3359 11.2943 35.3359 11.2964C35.3358 11.2985 35.3353 11.3277 35.3337 11.3788C35.3322 11.4299 35.3294 11.511 35.3244 11.6169C35.3149 11.8207 35.295 12.1723 35.252 12.6293C35.0735 14.5293 34.4483 18.9141 31.7588 23.8276L-26.7204 -8.18209C-29.9291 -2.32008 -30.8139 3.11106 -31.1222 6.39239C-31.3672 8.99954 -31.3333 11.677 -31.3333 12.2039H35.3333ZM31.7588 23.8277C29.0389 28.7966 25.6163 31.7409 23.952 33.0155C23.5625 33.3138 23.252 33.5333 23.0646 33.6626C22.8775 33.7919 22.7589 33.8686 22.7486 33.8753C22.7383 33.882 22.7798 33.855 22.9131 33.7715C23.0508 33.6852 23.2107 33.5859 23.4615 33.4303L-11.6935 -23.214C-12.0958 -22.9643 -14.4433 -21.551 -16.5822 -19.913C-19.3248 -17.8126 -23.4813 -14.0997 -26.7204 -8.18222L31.7588 23.8277ZM23.4616 33.4302L25.4616 32.189L-9.69351 -24.4552L-11.6935 -23.214L23.4616 33.4302ZM25.4615 32.189C25.7264 32.0246 25.8966 31.919 26.0442 31.8284C26.1872 31.7405 26.2344 31.7125 26.2259 31.7175C26.2176 31.7225 26.0919 31.7971 25.8843 31.9117C25.6768 32.0263 25.3232 32.2163 24.856 32.4435C22.9118 33.389 18.2972 35.3333 12 35.3333V-31.3333C4.59492 -31.3333 -1.07499 -29.0778 -4.29885 -27.5101C-6.8403 -26.2742 -9.27215 -24.7167 -9.69345 -24.4553L25.4615 32.189ZM12 35.3333C5.7028 35.3333 1.08819 33.389 -0.855934 32.4436C-1.32319 32.2163 -1.67671 32.0263 -1.88422 31.9118C-2.09182 31.7972 -2.21743 31.7225 -2.22578 31.7176C-2.23421 31.7126 -2.18698 31.7406 -2.04394 31.8285C-1.89638 31.9192 -1.72612 32.0248 -1.46122 32.1892L33.6932 -24.4554C33.272 -24.7168 30.8402 -26.2743 28.2988 -27.5101C25.075 -29.0778 19.4051 -31.3333 12 -31.3333V35.3333ZM-1.46144 32.189L0.538557 33.4303L35.6934 -23.214L33.6934 -24.4553L-1.46144 32.189ZM0.538533 33.4303C0.789303 33.5859 0.949238 33.6852 1.08692 33.7715C1.22018 33.855 1.26163 33.8819 1.25134 33.8752C1.24093 33.8685 1.12233 33.7917 0.935209 33.6625C0.747831 33.5331 0.437272 33.3136 0.0477618 33.0153C-1.61673 31.7406 -5.03907 28.7963 -7.75877 23.8277L50.7204 -8.18222C47.4815 -14.0994 43.3253 -17.8122 40.5825 -19.9128C38.4435 -21.5509 36.096 -22.9642 35.6935 -23.214L0.538533 33.4303ZM-7.75884 23.8276C-10.4483 18.9141 -11.0735 14.5293 -11.252 12.6293C-11.295 12.1722 -11.3149 11.8207 -11.3244 11.6169C-11.3294 11.511 -11.3322 11.4299 -11.3338 11.3788C-11.3353 11.3277 -11.3358 11.2985 -11.3359 11.2964C-11.3359 11.2943 -11.3356 11.3112 -11.3352 11.3525C-11.3348 11.394 -11.3344 11.4517 -11.3341 11.5316C-11.3334 11.7042 -11.3333 11.9025 -11.3333 12.2039H55.3333C55.3333 11.677 55.3672 8.99955 55.1222 6.3924C54.8139 3.11108 53.9291 -2.32008 50.7204 -8.18209L-7.75884 23.8276ZM-11.3333 12.2039V13.725H55.3333V12.2039H-11.3333ZM-11.3333 13.725C-11.3333 14.82 -11.3354 15.2306 -11.3417 15.4909C-11.3485 15.7678 -11.3472 15.0879 -11.2017 13.9684C-10.8938 11.5997 -9.57346 4.27709 -3.13597 -2.38128L44.7928 43.9575C52.4019 36.0873 54.308 27.1836 54.9088 22.5615C55.3996 18.7858 55.3333 14.7636 55.3333 13.725H-11.3333ZM-3.13791 -2.37927C-0.130402 -5.4905 3.3169 -7.72386 6.74451 -9.18258C9.90063 -10.5258 12.5177 -10.9891 13.7975 -11.1671C15.0488 -11.3411 15.8412 -11.3466 15.6233 -11.3409C15.4223 -11.3357 15.071 -11.3333 14 -11.3333V55.3333C14.9118 55.3333 19.0627 55.409 22.9807 54.8641C27.9762 54.1693 37.0336 51.9842 44.7947 43.9555L-3.13791 -2.37927ZM14 -11.3333H10V55.3333H14V-11.3333ZM10 -11.3333C8.92902 -11.3333 8.57772 -11.3357 8.37665 -11.3409C8.15876 -11.3466 8.95122 -11.3411 10.2025 -11.1671C11.4824 -10.9891 14.0994 -10.5257 17.2554 -9.18262C20.6829 -7.72397 24.1299 -5.49082 27.1371 -2.38009L-20.794 43.9563C-13.0332 51.9841 -3.97661 54.1693 1.01929 54.8641C4.93732 55.409 9.08823 55.3333 10 55.3333V-11.3333ZM27.1362 -2.38097C33.5736 4.27742 34.8939 11.5999 35.2017 13.9685C35.3472 15.088 35.3485 15.7678 35.3417 15.4909C35.3354 15.2306 35.3333 14.82 35.3333 13.725H-31.3333C-31.3333 14.7636 -31.3996 18.7858 -30.9088 22.5614C-30.3081 27.1833 -28.402 36.087 -20.7931 43.9572L27.1362 -2.38097ZM35.3333 13.725V12.2039H-31.3333V13.725H35.3333Z" fill="white" mask="url(#path-1-inside-1_177_4367)"/>
<path d="M9 17.25C8.58579 17.25 8.25 17.5858 8.25 18C8.25 18.4142 8.58579 18.75 9 18.75H15C15.4142 18.75 15.75 18.4142 15.75 18C15.75 17.5858 15.4142 17.25 15 17.25H9Z" fill="#0BAACA" stroke="white" stroke-width="33.3333"/>
</svg>
