<svg width="23" height="22" viewBox="0 0 23 22" fill="none" xmlns="http://www.w3.org/2000/svg">
<path d="M6.16661 9.83335V19.1667C6.16661 19.4761 6.04369 19.7728 5.8249 19.9916C5.6061 20.2104 5.30936 20.3333 4.99994 20.3333H2.66661C2.35719 20.3333 2.06044 20.2104 1.84165 19.9916C1.62286 19.7728 1.49994 19.4761 1.49994 19.1667V11C1.49994 10.6906 1.62286 10.3938 1.84165 10.1751C2.06044 9.95626 2.35719 9.83335 2.66661 9.83335H6.16661ZM6.16661 9.83335C7.40428 9.83335 8.59127 9.34168 9.46644 8.46651C10.3416 7.59134 10.8333 6.40436 10.8333 5.16668V4.00001C10.8333 3.38117 11.0791 2.78768 11.5167 2.3501C11.9543 1.91251 12.5478 1.66668 13.1666 1.66668C13.7854 1.66668 14.3789 1.91251 14.8165 2.3501C15.2541 2.78768 15.4999 3.38117 15.4999 4.00001V9.83335H18.9999C19.6188 9.83335 20.2123 10.0792 20.6499 10.5168C21.0874 10.9544 21.3333 11.5478 21.3333 12.1667L20.1666 18C19.9988 18.7157 19.6805 19.3303 19.2597 19.7511C18.8389 20.172 18.3383 20.3763 17.8333 20.3333H9.66661C8.73835 20.3333 7.84811 19.9646 7.19173 19.3082C6.53536 18.6518 6.16661 17.7616 6.16661 16.8333" stroke="#1C836D" stroke-width="1.5" stroke-linecap="round" stroke-linejoin="round"/>
</svg>
