<svg width="20" height="20" viewBox="0 0 20 20" fill="none" xmlns="http://www.w3.org/2000/svg">
<path fill-rule="evenodd" clip-rule="evenodd" d="M1.72641 7.91426C1.72641 4.56345 4.44278 1.84707 7.79359 1.84707C11.1444 1.84707 13.8608 4.56345 13.8608 7.91426C13.8608 11.2651 11.1444 13.9814 7.79359 13.9814C4.44278 13.9814 1.72641 11.2651 1.72641 7.91426ZM7.79359 0.231689C3.55063 0.231689 0.111023 3.67129 0.111023 7.91426C0.111023 12.1572 3.55063 15.5968 7.79359 15.5968C9.62401 15.5968 11.3049 14.9567 12.6247 13.8881L18.0255 19.2889C18.3409 19.6044 18.8523 19.6044 19.1678 19.2889C19.4832 18.9735 19.4832 18.4621 19.1678 18.1467L13.767 12.7459C14.8358 11.4261 15.4762 9.74494 15.4762 7.91426C15.4762 3.67129 12.0366 0.231689 7.79359 0.231689Z" fill="#121212"/>
</svg>
